<svg width="24" height="24" viewBox="0 0 24 24" fill="none" xmlns="http://www.w3.org/2000/svg">
<path d="M12 24C18.6274 24 24 18.6274 24 12C24 5.37258 18.6274 0 12 0C5.37258 0 0 5.37258 0 12C0 18.6274 5.37258 24 12 24Z" fill="#FAFAFA"/>
<path d="M8.55508 11.1895L12 7.94727L15.4467 11.1912L17.4512 9.30455L12 4.17391L6.55054 9.30289L8.55508 11.1895ZM5.13508 10.635L7.13959 12.5216L5.13498 14.4083L3.13049 12.5217L5.13508 10.635ZM8.55508 13.8539L12 17.0961L15.4466 13.8523L17.4523 15.738L17.4512 15.7389L12 20.8696L6.55047 15.7406L6.54768 15.738L8.55508 13.8539ZM20.8696 12.5219L18.8651 14.4085L16.8606 12.5219L18.8651 10.6353L20.8696 12.5219Z" fill="#27303D"/>
<path d="M13.5638 12.5207H13.5645L12.0001 10.4348L10.4348 12.5217L10.4369 12.5246L12.0001 14.6087L13.5652 12.5217L13.5638 12.5207Z" fill="#27303D"/>
</svg>
