<svg width="24" height="24" viewBox="0 0 24 24" fill="none" xmlns="http://www.w3.org/2000/svg">
<path d="M11.9918 0C9.61881 0.00293874 7.29991 0.708975 5.32793 2.02895C3.35595 3.34893 1.81933 5.22364 0.912111 7.41635C0.00489228 9.60907 -0.232236 12.0214 0.230672 14.3488C0.693579 16.6762 1.83576 18.8143 3.51298 20.4929V20.4929C4.90929 21.8867 6.62772 22.9148 8.51611 23.486C10.4045 24.0572 12.4046 24.154 14.3394 23.7679C16.2741 23.3817 18.0838 22.5245 19.6082 21.2721C21.1326 20.0197 22.3247 18.4108 23.079 16.5877C23.8333 14.7647 24.1264 12.7838 23.9325 10.8205C23.7386 8.85714 23.0636 6.97189 21.9672 5.33164C20.8709 3.6914 19.3871 2.34677 17.6471 1.41679C15.9071 0.48682 13.9647 0.000194256 11.9918 0V0ZM11.9918 22.8096C9.85404 22.8118 7.76369 22.1798 5.98518 20.9937C4.20667 19.8076 2.81991 18.1206 2.00035 16.1462C1.18079 14.1718 0.965244 11.9987 1.38099 9.90175C1.79673 7.80482 2.82508 5.87831 4.33594 4.36593C5.8468 2.85356 7.77228 1.82329 9.86879 1.40545C11.9653 0.987605 14.1387 1.20097 16.1139 2.01856C18.0891 2.83615 19.7775 4.22121 20.9654 5.99853C22.1532 7.77586 22.7873 9.86558 22.7873 12.0033C22.7881 13.4217 22.5094 14.8264 21.9673 16.1371C21.4252 17.4479 20.6302 18.639 19.6277 19.6424C18.6253 20.6459 17.435 21.4421 16.1248 21.9855C14.8146 22.5289 13.4102 22.809 11.9918 22.8096Z" fill="white"/>
<path d="M5.54047 17.4788C4.61196 15.5104 4.52717 13.0948 5.36092 11.0781C5.84252 9.91403 6.59993 8.88446 7.56791 8.07814C8.9162 6.96177 10.671 6.29676 12.4274 6.30175L12.4324 5.22112V5.0158C12.4324 5.0158 12.2736 5.0158 12.2071 5.0158C9.94643 5.1006 7.79694 6.01843 6.17223 7.59269C4.72418 9.01164 3.81728 10.9601 3.58786 12.9693C3.33848 15.1363 3.94779 17.4065 5.30772 19.1205L5.32934 19.148C5.88544 19.8421 6.54297 20.4722 7.32435 20.8936C8.63043 21.6113 10.0868 22.0122 11.5762 22.064C9.01096 21.5919 6.65269 19.8379 5.54047 17.4788Z" fill="white"/>
<path d="M18.5429 18.8978C18.2935 18.921 18.0383 18.9393 17.7865 18.9534C15.6626 19.0732 13.316 19.0224 11.4415 17.8845C10.924 17.572 10.4615 17.1766 10.0724 16.714C8.72328 15.1081 8.77066 12.6783 10.4955 11.3541C12.0001 10.2003 14.2628 10.419 15.4747 11.8944C15.582 12.0258 15.8172 12.3242 15.8172 12.3242C15.8172 12.3242 16.2137 12.1155 16.3392 12.0532L16.3791 12.0341L16.4049 12.0208L16.4731 11.9875L16.5063 11.9709L16.8056 11.8229L16.9718 11.7398L16.9668 11.7315C16.6174 11.1464 16.1517 10.6392 15.5986 10.2411C14.5417 9.48879 13.2359 9.17209 11.9519 9.35661C9.8887 9.66916 8.1813 11.2577 7.84132 13.325C7.49053 15.4613 8.56035 17.5104 10.3185 18.7016C12.1472 19.9385 14.4431 20.1106 16.6111 20.0216C17.119 20.0008 18.1547 19.9136 18.1522 19.8961C18.5734 19.5535 18.9682 19.1798 19.3334 18.7781C19.3334 18.7781 18.6493 18.8886 18.5429 18.8978Z" fill="white"/>
<path d="M14.9527 20.8254C14.6933 20.8193 14.4343 20.8038 14.1755 20.7789C12.04 20.5744 9.86042 19.7664 8.45145 18.0856C7.14471 16.5279 6.59525 14.3184 7.23366 12.3649C7.47218 11.6381 7.85632 10.9674 8.36264 10.394C8.86895 9.82054 9.48683 9.35629 10.1785 9.02957C10.8702 8.70285 11.6213 8.52052 12.3858 8.49371C13.1503 8.46691 13.9123 8.59619 14.6252 8.87365C14.6252 8.87365 14.8746 8.32253 14.9028 8.27099V8.26185L14.912 8.24273L14.9302 8.20366C15.0134 8.03159 15.089 7.85703 15.1738 7.68745C13.3808 7.04656 11.4481 7.01414 9.69251 7.81297C8.74559 8.24447 7.9074 8.88269 7.23956 9.68071C6.57172 10.4787 6.0912 11.4163 5.83332 12.4244C5.57545 13.4326 5.54677 14.4857 5.7494 15.5064C5.95202 16.527 6.38081 17.4893 7.00423 18.3225C7.77148 19.3491 8.83299 20.1413 9.96599 20.7332C11.7657 21.6625 14.3559 21.7806 14.5379 21.7407C15.4315 21.5279 16.7133 20.916 16.976 20.7141C16.5903 20.7914 15.9253 20.8155 15.5329 20.8271C15.3412 20.831 15.1478 20.8304 14.9527 20.8254Z" fill="white"/>
</svg>
