<svg width="17" height="24" viewBox="0 0 17 24" fill="none" xmlns="http://www.w3.org/2000/svg">
<path d="M2.66667 13.3333V18.6667H0V21.3333H4V24H6.66667V21.3333H9.33333V24H12V21.2653C14.624 20.9333 16.6667 18.712 16.6667 16C16.6667 14.24 15.8 12.688 14.48 11.716C15.4535 10.724 15.9992 9.38987 16 8C16 5.52267 14.2947 3.452 12 2.856V0H9.33333V2.66667H6.66667V0H4V2.66667H0V5.33333H2.66667V13.3333ZM11.3333 18.6667H5.33333V13.3333H11.3333C12.804 13.3333 14 14.5293 14 16C14 17.4707 12.804 18.6667 11.3333 18.6667ZM5.33333 5.33333H10.6667C12.1373 5.33333 13.3333 6.52933 13.3333 8C13.3333 9.47067 12.1373 10.6667 10.6667 10.6667H5.33333V5.33333Z" fill="#FAFAFA"/>
</svg>
