<svg width="24" height="24" viewBox="0 0 24 24" fill="none" xmlns="http://www.w3.org/2000/svg">
<path d="M12.288 7.908H10.573V11.288H13.27V12.703H10.573V16.083H12.372C12.834 16.083 16.166 16.135 16.161 12.15C16.156 8.166 12.929 7.908 12.288 7.908V7.908ZM12 0C5.373 0 0 5.373 0 12C0 18.627 5.373 24 12 24C18.627 24 24 18.627 24 12C24 5.373 18.627 0 12 0ZM12.472 18.481H8.126V12.703H6.594V11.288H8.126V5.511H11.856C12.738 5.511 18.583 5.328 18.583 12.105C18.582 18.993 12.472 18.481 12.472 18.481V18.481Z" fill="#FAFAFA"/>
</svg>
