<svg width="24" height="24" viewBox="0 0 24 24" fill="none" xmlns="http://www.w3.org/2000/svg">
<path d="M21.3333 0H2.66667C1.95942 0 1.28115 0.280951 0.781048 0.781048C0.280951 1.28115 0 1.95942 0 2.66667V6.66667C0 7.4 0.6 8 1.33333 8C2.06667 8 2.66667 7.4 2.66667 6.66667V2.66667H21.3333V21.3333H2.66667V17.3333C2.66667 16.6 2.06667 16 1.33333 16C0.6 16 0 16.6 0 17.3333V21.3333C0 22.8 1.2 24 2.66667 24H21.3333C22.8 24 24 22.8 24 21.3333V2.66667C24 1.2 22.8 0 21.3333 0ZM11.8 16.2L15.52 12.48C15.7867 12.2133 15.7867 11.8 15.52 11.5333L11.8 7.81333C11.7081 7.71872 11.5899 7.65382 11.4607 7.62702C11.3316 7.60021 11.1973 7.61273 11.0753 7.66296C10.9534 7.71319 10.8492 7.79882 10.7764 7.90881C10.7035 8.01879 10.6653 8.14809 10.6667 8.28V10.6667H1.33333C0.6 10.6667 0 11.2667 0 12C0 12.7333 0.6 13.3333 1.33333 13.3333H10.6667V15.72C10.6667 16.32 11.3867 16.6133 11.8 16.2V16.2Z" fill="white"/>
</svg>
