<svg width="84" height="40" viewBox="0 0 84 40" fill="none" xmlns="http://www.w3.org/2000/svg">
<path d="M82.8029 20.0004C82.6021 8.76034 73.4487 -0.189955 62.3661 0.00306416C61.3468 0.00306416 60.2779 0.0876751 59.2298 0.182863C50.4727 1.49169 44.6329 7.86927 41.4001 12.7688C38.1022 7.86927 32.2233 1.49169 23.5339 0.182863C22.4952 0.0754437 21.4522 0.0154505 20.4081 0.00306416C9.33067 -0.163514 0.205958 8.77356 0 20.0004C0.205958 31.2246 9.33067 40.1617 20.4081 39.9978C21.4535 39.9978 22.4859 39.9132 23.5991 39.7757C32.3588 38.5091 38.1961 32.1316 41.4705 27.232C44.7685 32.1316 50.6083 38.5092 59.3367 39.818C60.4108 39.9132 61.4302 39.9978 62.4991 39.9978C73.5243 40.1062 82.5969 31.185 82.8003 20.0004H82.8029ZM22.5276 32.7001C21.8367 32.8375 21.0364 32.8375 20.3455 32.8375C16.8857 32.9151 13.5361 31.6017 11.0276 29.1838C8.51909 26.766 7.0553 23.44 6.95564 19.9317C7.0634 16.4221 8.53303 13.0977 11.0449 10.6813C13.5568 8.26497 16.9077 6.95217 20.369 7.02845C21.0651 7.02845 21.8367 7.09984 22.5563 7.16594C30.7972 8.40603 35.8393 16.5869 37.5495 19.9317C35.8106 23.2818 30.7738 31.5684 22.5563 32.7001H22.5276ZM45.1908 20.0004C46.888 16.7217 51.9379 8.47213 60.1684 7.23469C60.8749 7.09719 61.6309 7.09719 62.327 7.09719C64.0469 7.04438 65.76 7.33666 67.3682 7.95724C68.9763 8.57782 70.4478 9.51447 71.698 10.7134C72.9482 11.9124 73.9526 13.35 74.6535 14.9437C75.3543 16.5375 75.7379 18.2559 75.7821 20.0004C75.6689 23.509 74.1969 26.8311 71.6851 29.2464C69.1733 31.6618 65.8241 32.9758 62.3635 32.9036C61.6422 32.8937 60.9218 32.8478 60.2049 32.7662C52.0057 31.5287 46.9271 23.2791 45.2299 20.0004H45.1908ZM14.6413 22.0813H26.944V17.9909H14.6699V22.0813H14.6413ZM63.7531 22.0813H67.8931V17.9909H63.7114V13.7894H59.7877V18.0306H55.619V22.0813H59.7877V26.2405H63.7948V22.1236L63.7531 22.0813ZM83.4286 2.58106C83.4286 3.63871 82.6673 4.3817 81.5828 4.3817C81.3473 4.39126 81.1124 4.35289 80.8918 4.26888C80.6711 4.18486 80.4694 4.0569 80.2983 3.89252C80.1272 3.72815 79.9904 3.5307 79.8957 3.31182C79.8011 3.09293 79.7507 2.85705 79.7474 2.61808C79.7474 1.62654 80.5791 0.788363 81.5828 0.788363C82.6673 0.788363 83.4286 1.56044 83.4286 2.57842V2.58106ZM80.2662 2.58106C80.2662 3.36372 80.8215 3.9983 81.6506 3.9983C82.4249 3.9983 82.9828 3.36372 82.9828 2.58106C82.9828 1.80899 82.4275 1.1744 81.6506 1.1744C80.8241 1.1083 80.2662 1.73759 80.2662 2.58106ZM81.3116 3.50121H80.9571V1.67149L81.6479 1.62919C81.9608 1.62919 82.1381 1.67149 82.2867 1.7376C82.4222 1.80899 82.4874 1.94648 82.4874 2.12628C82.4874 2.32987 82.3519 2.48323 82.1094 2.50967C82.2867 2.58107 82.3519 2.73178 82.4222 2.97768L82.5161 3.43247H82.1094C82.0442 3.36108 82.0442 3.18128 81.9608 2.97768C81.8956 2.79788 81.8252 2.73178 81.5828 2.73178H81.4185L81.3351 3.50121H81.3116ZM81.3768 2.44357H81.5828C81.8252 2.44357 81.9347 2.41449 81.9347 2.19238C81.9347 2.01258 81.8278 1.94648 81.5828 1.94648H81.3351V2.44357H81.3768Z" fill="white"/>
</svg>
