<svg width="23" height="24" viewBox="0 0 23 24" fill="none" xmlns="http://www.w3.org/2000/svg">
<path d="M19.6176 14.6464C18.7693 14.1626 17.8123 14.0186 16.8636 13.9826C16.0746 13.9594 14.8903 13.4396 14.8903 11.9989C14.8903 10.9249 15.7573 10.0579 16.8756 10.0151C17.8243 9.97913 18.7813 9.83513 19.6288 9.34688C20.7794 8.68246 21.6192 7.58836 21.9634 6.30506C22.3077 5.02175 22.1284 3.65426 21.4648 2.50313C20.7955 1.35125 19.6966 0.511907 18.4093 0.169252C17.1219 -0.173403 15.7511 0.00862031 14.5978 0.675385C13.8344 1.11333 13.2005 1.74561 12.7606 2.50795C12.3208 3.27029 12.0906 4.1355 12.0936 5.01563C12.0936 5.98763 12.4416 6.87863 12.8826 7.71488C13.2546 8.41013 13.4338 9.71063 12.1716 10.4411C11.2228 10.9841 10.0393 10.6451 9.45356 9.69938C8.95781 8.89838 8.35931 8.15213 7.51181 7.66838C5.11406 6.28163 2.04356 7.10513 0.668811 9.49613C0.00569898 10.6477 -0.173084 12.0154 0.171751 13.2987C0.516587 14.5819 1.35683 15.6758 2.50781 16.3399C3.26978 16.7774 4.13306 17.0076 5.01169 17.0076C5.89031 17.0076 6.7536 16.7774 7.51556 16.3399C8.35931 15.8546 8.95781 15.1091 9.45356 14.3089C9.85931 13.6556 10.8868 12.8201 12.1716 13.5656C13.1218 14.1049 13.4143 15.3049 12.8826 16.2964C12.4453 17.1161 12.0936 18.0191 12.0936 18.9911C12.0936 21.7571 14.3368 23.9951 17.1013 23.9989C18.4293 23.9983 19.7027 23.4705 20.6417 22.5315C21.5807 21.5925 22.1085 20.3191 22.1091 18.9911C22.1135 18.1116 21.8853 17.2466 21.4476 16.4837C21.0099 15.7208 20.3783 15.0872 19.6168 14.6471L19.6176 14.6464Z" fill="#FAFAFA"/>
</svg>
