<svg width="24" height="24" viewBox="0 0 24 24" fill="none" xmlns="http://www.w3.org/2000/svg">
<path d="M12 24C18.6274 24 24 18.6274 24 12C24 5.37258 18.6274 0 12 0C5.37258 0 0 5.37258 0 12C0 18.6274 5.37258 24 12 24Z" fill="#FAFAFA"/>
<path fill-rule="evenodd" clip-rule="evenodd" d="M13.4415 13.0372V13.0358C13.359 13.0418 12.9337 13.0673 11.985 13.0673C11.2275 13.0673 10.6942 13.0448 10.5067 13.0358V13.038C7.59073 12.9098 5.41423 12.402 5.41423 11.7945C5.41423 11.1878 7.59073 10.68 10.5067 10.5495V12.5325C10.6972 12.546 11.2432 12.5782 11.9977 12.5782C12.903 12.5782 13.3567 12.5408 13.4415 12.5333V10.551C16.3515 10.6808 18.5227 11.1885 18.5227 11.7945C18.5227 12.402 16.3515 12.9082 13.4415 13.0372V13.0372ZM13.4415 10.3448V8.57025H17.502V5.86425H6.44623V8.57025H10.5067V10.344C7.20673 10.4955 4.72498 11.1495 4.72498 11.9325C4.72498 12.7155 7.20673 13.3687 10.5067 13.521V19.2075H13.4415V13.5195C16.7362 13.368 19.212 12.7147 19.212 11.9325C19.212 11.1502 16.7362 10.497 13.4415 10.3448" fill="#27303D"/>
</svg>
